<svg width="1032" height="1031" xmlns="http://www.w3.org/2000/svg" xmlns:xlink="http://www.w3.org/1999/xlink" xml:space="preserve" overflow="hidden"><defs><clipPath id="clip0"><rect x="409" y="460" width="1032" height="1031"/></clipPath><radialGradient cx="2859578" cy="2856807" r="4042095" gradientUnits="userSpaceOnUse" spreadMethod="pad" id="fill1" gradientTransform="matrix(0.000360892 0 0 0.000360892 409 460)"><stop offset="0" stop-color="#134CB1"/><stop offset="0.0175439" stop-color="#134CB2"/><stop offset="0.0350877" stop-color="#144DB4"/><stop offset="0.0526316" stop-color="#154EB6"/><stop offset="0.0701754" stop-color="#154FB8"/><stop offset="0.0877193" stop-color="#1650BA"/><stop offset="0.105263" stop-color="#1750BB"/><stop offset="0.122807" stop-color="#1751BD"/><stop offset="0.140351" stop-color="#1852BF"/><stop offset="0.157895" stop-color="#1953C0"/><stop offset="0.175439" stop-color="#1953C2"/><stop offset="0.192982" stop-color="#1A54C4"/><stop offset="0.210526" stop-color="#1A55C5"/><stop offset="0.22807" stop-color="#1B55C7"/><stop offset="0.245614" stop-color="#1C56C8"/><stop offset="0.263158" stop-color="#1C57CA"/><stop offset="0.280702" stop-color="#1D57CB"/><stop offset="0.298246" stop-color="#1D58CD"/><stop offset="0.315789" stop-color="#1E59CE"/><stop offset="0.333333" stop-color="#1E59CF"/><stop offset="0.350877" stop-color="#1F5AD1"/><stop offset="0.368421" stop-color="#1F5BD2"/><stop offset="0.385965" stop-color="#205BD3"/><stop offset="0.403509" stop-color="#205CD4"/><stop offset="0.421053" stop-color="#215CD6"/><stop offset="0.438596" stop-color="#215DD7"/><stop offset="0.45614" stop-color="#215DD8"/><stop offset="0.473684" stop-color="#225ED9"/><stop offset="0.491228" stop-color="#225EDA"/><stop offset="0.508772" stop-color="#235FDB"/><stop offset="0.526316" stop-color="#235FDC"/><stop offset="0.54386" stop-color="#2360DD"/><stop offset="0.561404" stop-color="#2460DE"/><stop offset="0.578947" stop-color="#2460DF"/><stop offset="0.596491" stop-color="#2461E0"/><stop offset="0.614035" stop-color="#2561E1"/><stop offset="0.631579" stop-color="#2562E2"/><stop offset="0.649123" stop-color="#2562E2"/><stop offset="0.666667" stop-color="#2662E3"/><stop offset="0.684211" stop-color="#2663E4"/><stop offset="0.701754" stop-color="#2663E4"/><stop offset="0.719298" stop-color="#2663E5"/><stop offset="0.736842" stop-color="#2763E6"/><stop offset="0.754386" stop-color="#2764E6"/><stop offset="0.77193" stop-color="#2764E7"/><stop offset="0.789474" stop-color="#2764E7"/><stop offset="0.807018" stop-color="#2764E8"/><stop offset="0.824561" stop-color="#2865E8"/><stop offset="0.842105" stop-color="#2865E9"/><stop offset="0.859649" stop-color="#2865E9"/><stop offset="0.877193" stop-color="#2865E9"/><stop offset="0.894737" stop-color="#2865EA"/><stop offset="0.912281" stop-color="#2865EA"/><stop offset="0.929825" stop-color="#2865EA"/><stop offset="0.947368" stop-color="#2865EA"/><stop offset="0.964912" stop-color="#2865EA"/><stop offset="0.982456" stop-color="#2865EA"/><stop offset="1" stop-color="#2966EB"/></radialGradient></defs><g clip-path="url(#clip0)" transform="translate(-409 -460)"><path d="M409 631.836C409 536.934 485.934 460 580.836 460L1269.16 460C1364.07 460 1441 536.934 1441 631.836L1441 1319.16C1441 1414.07 1364.07 1491 1269.16 1491L580.836 1491C485.934 1491 409 1414.07 409 1319.16Z" fill="url(#fill1)" fill-rule="evenodd"/><g><g><g><path d="M675.29 413.637C672.699 413.637 669.245 413.637 666.654 413.637 666.654 413.637 666.654 413.637 666.654 413.637 666.654 371.323 645.929 332.464 612.251 308.284 577.709 284.105 533.669 278.06 493.946 291.877 461.131 227.975 388.594 195.16 319.51 211.568 250.427 227.975 200.342 290.15 200.342 361.824 200.342 361.824 200.342 362.688 200.342 363.551 152.847 355.779 105.352 375.641 75.9917 413.637 47.4948 452.496 42.3135 503.445 62.175 546.622 82.9 589.799 126.077 618.296 173.572 620.887L173.572 621.75 674.426 621.75C731.42 621.75 778.051 575.119 778.051 518.125 778.051 461.131 732.283 413.637 675.29 413.637Z" fill="#FFFFFF" transform="matrix(1 0 0 1.00121 513 566)"/></g></g></g><path d="M662.35 1078.52C667.032 1045.22 716.786 1020.45 773.478 1023.21 826.895 1025.8 868 1052.02 868 1083.5" stroke="#000000" stroke-width="66.4583" stroke-linecap="round" stroke-miterlimit="8" fill="none" fill-rule="evenodd"/><path d="M965.355 1078.5C970.082 1045.2 1020.09 1020.44 1077.06 1023.21 1130.72 1025.81 1172 1052.03 1172 1083.5" stroke="#000000" stroke-width="66.4583" stroke-linecap="round" stroke-miterlimit="8" fill="none" fill-rule="evenodd"/></g></svg>